<svg width="180" height="180" viewBox="0 0 180 180" fill="none" xmlns="http://www.w3.org/2000/svg">
<path d="M90 179.977C139.693 179.977 179.977 139.693 179.977 90C179.977 40.3069 139.693 0.022583 90 0.022583C40.3068 0.022583 0.0225677 40.3069 0.0225677 90C0.0225677 139.693 40.3068 179.977 90 179.977Z" fill="#F4F2E8"/>
<path d="M21.493 80.4156L37.9485 73.5107L38.9526 75.9083L22.4972 82.8131L21.493 80.4156Z" fill="#EF1616"/>
<path d="M47.9391 79.0673L41.3953 63.4693C39.7198 59.4753 38.7495 58.3697 35.1561 55.8311C37.9485 52.8525 42.4558 47.9278 44.9887 44.8477L57.6363 75C59.4133 79.2365 60.7729 82.1305 64.1689 84.8947L50.4776 90.6374C50.8274 86.305 49.7104 83.3038 47.9334 79.0673H47.9391Z" fill="#EF1616"/>
<path d="M88.9733 58.4599C92.9673 67.9767 87.6307 75.9195 81.2448 78.5991C76.9462 80.4043 70.3629 80.7089 64.5412 75.2821L71.7394 67.1361C77.5047 72.4445 81.1377 73.8774 82.7341 73.2117C83.5352 72.8789 84.8214 72.3373 83.1234 68.2813C80.7033 62.5103 74.2554 57.9917 67.8695 60.6713C65.3535 61.7262 64.1632 62.516 62.1493 64.5863L54.6691 41.9425L75.4231 33.2324L79.1576 42.642C76.3708 43.2343 75.1467 43.7477 70.1711 45.8349L61.0211 49.6709L63.6499 58.1723C65.5961 55.4081 68.6762 53.4618 71.1358 52.4295C79.4848 48.9263 85.8537 51.0192 88.9733 58.4487V58.4599Z" fill="#EF1616"/>
<path d="M86.666 40.5773C83.6254 33.334 86.2655 27.7492 91.4836 25.5547C97.4408 23.0557 102.586 26.8917 105.164 33.0293C108.176 40.2162 105.536 45.8011 100.318 47.9898C94.2366 50.5397 89.2159 46.6529 86.666 40.5773ZM117.208 15.2708L121.015 13.6743L104.718 68.4618L101.339 69.8778L117.208 15.2708ZM99.5393 39.9398C96.7074 33.1873 93.9432 27.6307 91.7939 28.5333C90.8123 28.9451 91.0436 30.8687 92.2001 33.6329C95.4438 41.3727 97.8864 45.9816 100.036 45.079C101.017 44.6672 100.673 42.642 99.5393 39.9398ZM117.8 49.8966C114.759 42.6533 117.399 37.0685 122.618 34.874C128.575 32.375 133.719 36.211 136.297 42.3486C139.31 49.5355 136.67 55.1203 131.452 57.3091C125.37 59.859 120.35 55.9722 117.8 49.8966ZM130.679 49.2591C127.847 42.5066 125.083 36.95 122.933 37.8526C121.952 38.2644 122.183 40.188 123.34 42.9522C126.583 50.6864 129.026 55.3009 131.175 54.3983C132.157 53.9865 131.813 51.9613 130.679 49.2591Z" fill="#EF1616"/>
<path d="M24.6691 116.92L31.9688 113.857L32.815 115.882L27.704 118.026L28.742 120.502L32.8375 118.781L33.6837 120.807L29.5882 122.527L30.9534 125.782L36.2279 123.571L37.0741 125.596L29.6051 128.727L24.6521 116.926L24.6691 116.92Z" fill="#EF1616"/>
<path d="M42.4727 109.451L44.6672 108.531L49.6202 120.333L47.3129 121.303L39.7142 115.329L42.9805 123.12L40.7917 124.039L35.8387 112.238L38.1459 111.267L45.7446 117.236L42.4784 109.445L42.4727 109.451Z" fill="#EF1616"/>
<path d="M54.7198 106.692L53.8736 104.667L62.6062 101.006L63.4524 103.031L60.1805 104.402L64.2817 114.178L62.0873 115.098L57.9861 105.322L54.7142 106.692H54.7198Z" fill="#EF1616"/>
<path d="M70.6732 97.4577C72.7153 96.6002 74.7462 96.6792 76.5626 98.1177C77.4765 98.8229 78.2155 99.8439 78.7683 101.158C79.874 103.787 79.513 106.196 78.2381 107.747C77.5893 108.514 76.7657 109.101 75.7334 109.53C73.6912 110.387 71.6773 110.303 69.827 108.876C68.9131 108.17 68.1911 107.144 67.6382 105.829C66.5325 103.2 66.8823 100.775 68.1741 99.2629C68.8229 98.4957 69.6408 97.8921 70.6732 97.4633V97.4577ZM71.5194 99.4829C70.5604 99.8834 69.906 100.555 69.5506 101.497C69.2121 102.433 69.308 103.561 69.8665 104.893C70.425 106.224 71.164 107.087 72.0722 107.499C72.9974 107.905 73.9282 107.911 74.8928 107.505C75.8575 107.099 76.5062 106.433 76.8447 105.496C77.2001 104.554 77.1042 103.426 76.5457 102.089C75.9872 100.752 75.2482 99.8947 74.3231 99.4942C73.4148 99.0824 72.484 99.0767 71.5194 99.4772V99.4829Z" fill="#EF1616"/>
<path d="M84.906 105.525L79.953 93.7233L83.6424 92.1719C86.4235 91.0042 89.8872 91.653 91.6134 95.7654C93.3396 99.8779 91.3765 102.806 88.5954 103.973L84.906 105.525ZM86.2486 102.58L87.0553 102.242C88.082 101.813 88.8323 101.237 89.402 100.363C89.9831 99.483 90.0226 98.2024 89.3908 96.7018C88.759 95.2013 87.8169 94.3269 86.7845 94.1295C85.7635 93.9207 84.8327 94.0561 83.8003 94.4905L82.9936 94.829L86.2486 102.586V102.58Z" fill="#EF1616"/>
<path d="M98.1572 85.927C100.199 85.0696 102.23 85.1486 104.047 86.5871C104.961 87.2922 105.7 88.3133 106.252 89.6277C107.358 92.2565 106.997 94.6653 105.722 96.2166C105.073 96.9838 104.25 97.5705 103.217 97.9992C101.175 98.8567 99.1614 98.7721 97.311 97.3449C96.3972 96.6341 95.6751 95.613 95.1222 94.2986C94.0166 91.6698 94.3663 89.2441 95.6582 87.7322C96.3069 86.965 97.1249 86.3614 98.1572 85.9327V85.927ZM99.0034 87.9522C98.0444 88.3528 97.39 89.0241 97.0346 89.9661C96.6961 90.9026 96.792 92.0308 97.3505 93.3622C97.909 94.6935 98.648 95.5566 99.5562 95.9684C100.481 96.3746 101.412 96.3802 102.377 95.974C103.341 95.5679 103.99 94.9022 104.329 93.9658C104.684 93.0237 104.588 91.8954 104.03 90.5641C103.471 89.2328 102.732 88.3697 101.813 87.9692C100.904 87.5573 99.9737 87.5517 99.009 87.9579L99.0034 87.9522Z" fill="#EF1616"/>
<path d="M113.659 83.27C112.892 82.6213 112.159 82.4351 111.499 82.7059C110.839 82.9767 110.562 83.6367 110.822 84.2573C111.132 84.9963 112.176 85.2163 113.326 85.267C115.002 85.2952 117.241 85.3911 118.082 87.4333C119.047 89.7236 118.138 91.7319 115.848 92.6909C114.821 93.1196 113.789 93.176 112.791 92.8658C111.781 92.5386 110.974 91.9406 110.399 91.0944L111.702 89.2385C112.83 90.6488 113.936 91.117 115.053 90.6488C116.079 90.22 116.373 89.4979 115.944 88.4712C115.656 87.7774 114.669 87.5574 113.496 87.5574C111.848 87.5574 109.654 87.422 108.774 85.2332C108.402 84.3419 108.385 83.4562 108.729 82.5762C109.09 81.6905 109.722 81.07 110.647 80.6807C112.249 80.0094 113.676 80.2407 114.951 81.3915L113.654 83.2644L113.659 83.27Z" fill="#EF1616"/>
<path d="M124.316 75.1129L126.504 74.1934L130.606 83.9696L135.615 81.8711L136.461 83.8963L129.263 86.9143L124.31 75.1129H124.316Z" fill="#EF1616"/>
<path d="M139.411 68.6198C141.454 67.7623 143.484 67.8413 145.301 69.2798C146.215 69.985 146.954 71.006 147.507 72.3204C148.612 74.9492 148.251 77.358 146.976 78.9094C146.328 79.6766 145.504 80.2633 144.472 80.692C142.43 81.5495 140.416 81.4648 138.565 80.0376C137.651 79.3325 136.929 78.3058 136.376 76.9914C135.271 74.3625 135.621 71.9368 136.912 70.4193C137.561 69.6521 138.379 69.0485 139.406 68.6198H139.411ZM140.258 70.645C139.299 71.0455 138.644 71.7168 138.289 72.6589C137.95 73.5953 138.046 74.7236 138.605 76.0549C139.163 77.3862 139.902 78.2494 140.81 78.6612C141.736 79.0673 142.666 79.073 143.631 78.6668C144.596 78.2606 145.244 77.595 145.583 76.6585C145.938 75.7164 145.842 74.5882 145.284 73.2512C144.725 71.9143 143.986 71.0568 143.061 70.6563C142.153 70.2445 141.222 70.2388 140.258 70.645Z" fill="#EF1616"/>
<path d="M154.913 65.9628C154.146 65.3141 153.413 65.1279 152.753 65.3987C152.093 65.6695 151.816 66.3295 152.076 66.95C152.386 67.689 153.43 67.909 154.581 67.9598C156.256 67.988 158.496 68.0783 159.336 70.126C160.301 72.4163 159.393 74.4246 157.102 75.3836C156.076 75.8124 155.049 75.8688 154.045 75.5585C153.035 75.2313 152.228 74.6334 151.653 73.7872L152.956 71.9312C154.084 73.3415 155.19 73.8097 156.301 73.3415C157.328 72.9128 157.621 72.1907 157.193 71.164C156.905 70.4701 155.918 70.2501 154.744 70.2501C153.097 70.2501 150.903 70.1147 150.023 67.9259C149.65 67.0346 149.633 66.149 149.977 65.2689C150.338 64.3833 150.97 63.7627 151.895 63.3735C153.498 62.7022 154.925 62.9335 156.2 64.0843L154.902 65.9572L154.913 65.9628Z" fill="#EF1616"/>
<path d="M30.4795 138.278L32.6683 137.358L36.7695 147.134L41.7789 145.036L42.625 147.061L35.4269 150.079L30.4739 138.278H30.4795Z" fill="#EF1616"/>
<path d="M41.3332 133.719L48.6329 130.656L49.4791 132.681L44.3682 134.825L45.4062 137.302L49.5017 135.581L50.3479 137.606L46.2524 139.327L47.6175 142.582L52.8921 140.37L53.7383 142.396L46.2693 145.527L41.3163 133.725L41.3332 133.719Z" fill="#EF1616"/>
<path d="M59.1425 126.25L61.3313 125.331L66.2843 137.132L63.9771 138.103L56.3783 132.129L59.6446 139.919L57.4558 140.839L52.5028 129.037L54.8101 128.067L62.4088 134.035L59.1425 126.245V126.25Z" fill="#EF1616"/>
<path d="M65.7541 125.856L64.9079 123.83L73.6405 120.164L74.4867 122.189L71.2147 123.56L75.3159 133.336L73.1271 134.255L69.026 124.479L65.7541 125.85V125.856Z" fill="#EF1616"/>
<path d="M77.2114 118.669L84.5111 115.605L85.3573 117.631L80.252 119.774L81.29 122.251L85.3855 120.53L86.2317 122.555L82.1362 124.276L83.5013 127.531L88.7759 125.32L89.622 127.345L82.1531 130.476L77.2001 118.674L77.2114 118.669Z" fill="#EF1616"/>
<path d="M94.5468 115.087C93.7796 114.438 93.0463 114.252 92.3863 114.522C91.7262 114.793 91.4498 115.453 91.7093 116.074C92.0196 116.813 93.0632 117.033 94.214 117.084C95.8894 117.112 98.129 117.202 98.9696 119.25C99.9342 121.54 99.026 123.548 96.7356 124.507C95.7089 124.936 94.6822 124.993 93.6781 124.682C92.6683 124.355 91.8616 123.757 91.2862 122.911L92.5893 121.055C93.7176 122.465 94.8233 122.934 95.9346 122.465C96.9613 122.037 97.2546 121.314 96.8259 120.288C96.5382 119.594 95.551 119.374 94.3776 119.374C92.7304 119.374 90.5359 119.239 89.6559 117.05C89.2836 116.158 89.2667 115.273 89.6108 114.393C89.9718 113.507 90.6036 112.886 91.5288 112.497C93.1309 111.826 94.5581 112.057 95.833 113.208L94.5356 115.081L94.5468 115.087Z" fill="#EF1616"/>
<path d="M110.15 118.725L105.197 106.924L108.887 105.372C111.668 104.205 115.132 104.853 116.858 108.966C118.584 113.078 116.621 116.006 113.84 117.174L110.15 118.725ZM111.493 115.78L112.3 115.442C113.326 115.013 114.077 114.438 114.646 113.563C115.228 112.683 115.267 111.403 114.635 109.902C114.003 108.402 113.061 107.527 112.029 107.33C111.008 107.121 110.077 107.257 109.045 107.691L108.238 108.029L111.493 115.786V115.78Z" fill="#EF1616"/>
<path d="M118.048 101.536L125.348 98.4731L126.194 100.498L121.089 102.642L122.127 105.118L126.222 103.398L127.068 105.423L122.973 107.144L124.338 110.399L129.613 108.187L130.459 110.213L122.99 113.343L118.037 101.542L118.048 101.536Z" fill="#EF1616"/>
<path d="M141.25 95.4889C140.483 94.8402 139.75 94.654 139.09 94.9248C138.43 95.1956 138.153 95.8556 138.413 96.4761C138.723 97.2151 139.767 97.4351 140.918 97.4859C142.593 97.5141 144.833 97.61 145.673 99.6521C146.638 101.942 145.73 103.951 143.439 104.91C142.413 105.338 141.38 105.395 140.382 105.085C139.372 104.757 138.565 104.159 137.99 103.313L139.293 101.457C140.421 102.868 141.527 103.336 142.644 102.868C143.671 102.439 143.964 101.717 143.535 100.69C143.247 99.9963 142.26 99.7762 141.087 99.7762C139.44 99.7762 137.245 99.6409 136.365 97.4521C135.993 96.5608 135.976 95.6751 136.32 94.795C136.681 93.9094 137.313 93.2888 138.238 92.8996C139.84 92.2283 141.267 92.4596 142.542 93.6104L141.245 95.4833L141.25 95.4889Z" fill="#EF1616"/>
<path d="M150.953 87.5743C152.996 86.7168 155.026 86.7958 156.843 88.2343C157.757 88.9394 158.496 89.9605 159.049 91.2749C160.154 93.9037 159.793 96.3125 158.518 97.8638C157.87 98.631 157.046 99.2177 156.014 99.6465C153.971 100.504 151.958 100.419 150.107 98.9921C149.193 98.2869 148.471 97.2602 147.918 95.9458C146.813 93.317 147.162 90.8913 148.454 89.3738C149.103 88.6066 149.921 88.003 150.948 87.5743H150.953ZM151.8 89.5995C150.841 90 150.186 90.6713 149.831 91.6134C149.492 92.5498 149.588 93.6781 150.147 95.0094C150.705 96.3407 151.444 97.2038 152.352 97.6156C153.278 98.0218 154.208 98.0274 155.173 97.6213C156.138 97.2151 156.786 96.5494 157.125 95.613C157.48 94.6709 157.384 93.5427 156.826 92.2057C156.267 90.8687 155.528 90.0113 154.603 89.6107C153.695 89.1989 152.764 89.1933 151.8 89.5995Z" fill="#EF1616"/>
<path d="M160.233 83.8398L162.422 82.9203L166.523 92.6965L171.533 90.598L172.379 92.6232L165.181 95.6412L160.228 83.8398H160.233Z" fill="#EF1616"/>
</svg>
